<?xml version="1.0" encoding="utf-8"?>
<svg version="1.1" xmlns="http://www.w3.org/2000/svg" xmlns:xlink="http://www.w3.org/1999/xlink" x="0px" y="0px" width="34px"
	 height="393px" viewBox="0 0 34 393" xml:space="preserve">
	<g>
			<path fill="#6DB544" d="M17,23.4c-5,0-9-4-9-9s4-9,9-9s9,4,9,9S22,23.4,17,23.4z"/>
			<path fill="#FFFFFF" d="M17,6.4c4.4,0,8,3.6,8,8c0,4.4-3.6,8-8,8c-4.4,0-8-3.6-8-8C9,10,12.6,6.4,17,6.4 M17,4.4
				c-5.5,0-10,4.5-10,10s4.5,10,10,10s10-4.5,10-10S22.5,4.4,17,4.4L17,4.4z"/>
			<path fill="#ffffff" d="M15.7,18.4l-3.2-3.2l1.2-1.2l2,2l4.6-4.6l1.2,1.2L15.7,18.4z"/>
	</g>
	<g>
			<path fill="#E62133" d="M17,135.9c-5,0-9-4-9-9s4-9,9-9s9,4,9,9S22,135.9,17,135.9z"/>
			<path fill="#ffffff" d="M17,118.9c4.4,0,8,3.6,8,8s-3.6,8-8,8c-4.4,0-8-3.6-8-8S12.6,118.9,17,118.9 M17,116.9c-5.5,0-10,4.5-10,10
				s4.5,10,10,10s10-4.5,10-10S22.5,116.9,17,116.9L17,116.9z"/>
			<path fill="#ffffff" d="M15.9,129.7h2.2v2.2h-2.2V129.7z M18,124.6l-0.5,4.3h-1l-0.5-4.3v-2.7H18V124.6z"/>
	</g>
	<g>
		<path fill="#AFAFAF" d="M17,257.9c-5,0-9-4-9-9s4-9,9-9s9,4,9,9S22,257.9,17,257.9z"/>
		<path fill="#ffffff" d="M17,240.9c4.4,0,8,3.6,8,8s-3.6,8-8,8c-4.4,0-8-3.6-8-8S12.6,240.9,17,240.9 M17,238.9c-5.5,0-10,4.5-10,10
			s4.5,10,10,10s10-4.5,10-10S22.5,238.9,17,238.9L17,238.9z"/>
			<rect fill="#ffffff" x="12" y="248.4" class="st1" width="11" height="2"/>

	</g>
	<g>
		<path fill="#AFAFAF" d="M17,388.5c-5,0-9-4-9-9c0-2.1,0.7-4,2-5.6v-2.4c0-3.8,3.2-7,7-7s7,3.2,7,7v2.4c1.3,1.6,2,3.6,2,5.6
			C26,384.5,22,388.5,17,388.5z M17,368.5c-1.4,0-2.7,1.1-3,2.5c0.9-0.3,1.9-0.5,3-0.5c1,0,2,0.2,3,0.5
			C19.7,369.7,18.4,368.5,17,368.5z"/>
		<path fill="#ffffff" d="M17,365.5c3.2,0,6,2.8,6,6v2.7c1.2,1.4,2,3.3,2,5.3c0,4.4-3.6,8-8,8s-8-3.6-8-8c0-2,0.8-3.9,2-5.3v-2.7
			C11,368.3,13.8,365.5,17,365.5 M13,372.6c1.2-0.7,2.5-1.1,4-1.1c1.5,0,2.8,0.4,4,1.1v-1.1c0-2.1-1.9-4-4-4s-4,1.9-4,4V372.6
			 M15.5,381.1l-2.3-2.3l-1.4,1.4l3.7,3.7l6.7-6.7l-1.4-1.4L15.5,381.1 M17,363.5c-4.3,0-8,3.7-8,8v2c-1.3,1.7-2,3.8-2,6
			c0,5.5,4.5,10,10,10c5.5,0,10-4.5,10-10c0-2.2-0.7-4.3-2-6v-2C25,367.2,21.3,363.5,17,363.5L17,363.5z"/>
	</g>
</svg>
